
<svg width="20" height="20" viewBox="0 0 20 20" fill="none" xmlns="http://www.w3.org/2000/svg">
<path d="M10.0056 1.06957e-07C6.00354 -0.000583226 2.38654 2.38496 0.811333 6.064L0.686666 6.10533L0.734999 6.25033C-1.339 11.3656 1.12637 17.1936 6.24162 19.2676C7.43633 19.752 8.71346 20.0007 10.0027 20C15.5255 20.0008 20.0033 15.5243 20.0042 10.0015C20.005 4.47867 15.5285 0.000791774 10.0056 1.06957e-07ZM17.8495 15.0418L17.336 14.5287V13.3333C17.3366 13.2817 17.3252 13.2308 17.3027 13.1843L16.0027 10.588V9.33333C16.0027 9.22192 15.947 9.11783 15.8543 9.056L14.8543 8.38933C14.776 8.337 14.6791 8.32029 14.5877 8.34333L13.363 8.64933L11.306 7.76667L11.023 5.784L11.8073 5H13.491L14.0577 5.85167C14.1088 5.92825 14.1895 5.98029 14.2803 5.99533L16.2803 6.32867C16.3339 6.33767 16.3888 6.33329 16.4403 6.316L18.2823 5.702C19.8273 8.66679 19.662 12.2327 17.8495 15.0418ZM16.4747 3.28467L15.9327 3.646L14.4217 3.34367L13.4413 3.01733C13.3813 2.99696 13.3167 2.99437 13.2553 3.01L12.016 3.31967L11.4727 3.13867L11.8753 2.33333H13.0027C13.0544 2.33337 13.1054 2.32142 13.1517 2.29833L14.305 1.72167C15.0992 2.13625 15.8299 2.66258 16.4747 3.28467ZM6.35167 1.411L7.15167 1.94433C7.191 1.9705 7.23542 1.988 7.282 1.99567L8.89733 2.265L8.73967 2.73667L7.898 3.01767C7.82262 3.04275 7.75867 3.09392 7.71767 3.162L6.76033 4.75733L5.22267 5.68L2.956 6.00367C2.79171 6.02687 2.66954 6.16742 2.66933 6.33333V7.33333C2.66933 7.42175 2.7045 7.5065 2.767 7.569L3.336 8.138V8.71067L1.94933 7.786L1.44633 6.277C2.40333 4.09033 4.15737 2.35033 6.35167 1.411ZM5.40267 12.34L3.896 12.0383L3.336 10.9213V10.138L4.578 8.896L5.03767 9.81567C5.09412 9.92867 5.20967 10 5.336 10H7.48067L8.38367 11.505C8.44392 11.6053 8.55233 11.6666 8.66933 11.6667H9.596L9.36267 12.8357L8.10067 14.0977C8.03804 14.1601 8.00279 14.2449 8.00267 14.3333V15.1667L6.80267 16.0667C6.71875 16.1296 6.66933 16.2284 6.66933 16.3333V17.5373L6.25467 17.4L5.66933 15.936V12.6667C5.66937 12.5082 5.55787 12.3717 5.40267 12.34ZM4.40067 17.4642C1.25779 15.1063 -0.071334 11.0323 1.07633 7.27467L1.35333 8.10533C1.37667 8.17562 1.42275 8.23617 1.48433 8.27733L3.146 9.385L2.767 9.76433C2.7045 9.82683 2.66933 9.91158 2.66933 10V11C2.66929 11.0517 2.68125 11.1027 2.70433 11.149L3.371 12.4823C3.41717 12.5744 3.50329 12.64 3.60433 12.66L5.00433 12.9397V16C5.00429 16.0423 5.01233 16.0843 5.028 16.1237L5.69467 17.7903C5.73117 17.8814 5.80592 17.9517 5.899 17.9827L6.899 18.316C6.93242 18.3273 6.96742 18.3332 7.00267 18.3333C7.18675 18.3333 7.336 18.1841 7.336 18V16.5L8.536 15.6C8.61992 15.537 8.66933 15.4382 8.66933 15.3333V14.4713L9.905 13.2357C9.95146 13.1891 9.98312 13.1298 9.996 13.0653L10.3293 11.3987C10.3654 11.2181 10.2483 11.0425 10.0678 11.0065C10.0463 11.0022 10.0245 11 10.0027 11H8.858L7.955 9.495C7.89475 9.39471 7.78633 9.33337 7.66933 9.33333H5.542L4.96933 8.18433C4.92137 8.08842 4.83021 8.02142 4.72433 8.00433C4.6185 7.98604 4.51046 8.02096 4.43533 8.09767L4.00267 8.52867V8C4.00267 7.91158 3.9675 7.82683 3.905 7.76433L3.336 7.19533V6.62233L5.38333 6.33C5.42729 6.32362 5.46958 6.30854 5.50767 6.28567L7.17433 5.28567C7.22108 5.25758 7.26025 5.21842 7.28833 5.17167L8.225 3.61067L9.108 3.316C9.20771 3.28329 9.28596 3.20508 9.31867 3.10533L9.652 2.10533C9.70975 1.93054 9.61487 1.742 9.44008 1.68425C9.42396 1.67892 9.40742 1.67483 9.39067 1.672L7.46133 1.35033L7.12233 1.12433C9.21996 0.441583 11.4919 0.526083 13.533 1.36267L12.924 1.66667H11.6693C11.5424 1.66596 11.4261 1.73746 11.3693 1.851L10.7027 3.18433C10.6205 3.34908 10.6875 3.54925 10.8522 3.63138C10.8663 3.63838 10.8808 3.64438 10.8957 3.64933L11.8957 3.98267C11.9557 4.00304 12.0202 4.00562 12.0817 3.99L13.321 3.68033L14.229 3.98267C14.242 3.98733 14.2554 3.99092 14.269 3.99333L15.9357 4.32667C16.0223 4.34433 16.1125 4.32658 16.186 4.27733L16.9447 3.77133C17.318 4.18721 17.6536 4.63554 17.9473 5.111L16.3073 5.65767L14.5317 5.36167L13.945 4.48167C13.8835 4.38946 13.7802 4.33388 13.6693 4.33333H11.6693C11.5809 4.33333 11.4962 4.3685 11.4337 4.431L10.4337 5.431C10.3594 5.50521 10.3245 5.61008 10.3393 5.714L10.6727 8.04733C10.6895 8.16271 10.7653 8.26092 10.8727 8.30633L13.206 9.30633C13.2728 9.33529 13.3474 9.34125 13.418 9.32333L14.6083 9.02567L15.336 9.51167V10.6667C15.3354 10.7182 15.3468 10.7692 15.3693 10.8157L16.6693 13.412V14.6667C16.6693 14.7551 16.7045 14.8398 16.767 14.9023L17.4643 15.6C14.3717 19.7222 8.52287 20.5569 4.40067 17.4642Z" fill="#0A2472"/>
</svg>