<svg width="150" height="180" viewBox="0 0 1024 1024" fill="none" xmlns="http://www.w3.org/2000/svg">
<rect width="1024" height="1024" rx="150" fill="none"/>
<path d="M530.977 401.499C531.012 401.348 531.14 401.242 531.288 401.24C532.106 401.225 532.931 401.153 533.735 401.257C542.514 402.395 551.304 402.072 560.103 401.599C566.693 401.244 573.303 401.197 579.878 400.66C588.644 399.943 597.41 399.083 606.129 397.908C612.936 396.99 619.691 395.597 626.436 394.233C634.197 392.664 641.691 390.07 649.04 387.048C660.444 382.358 671.155 376.317 681.064 368.708C689.848 361.964 697.713 354.206 704.757 345.508C705.683 344.365 706.464 343.034 708.283 342.184C708.524 342.071 708.767 342.343 708.647 342.59C708.149 343.618 707.81 344.36 707.409 345.063C694.77 367.209 677.4 384.014 655.651 395.931C643.054 402.833 629.802 407.847 616.01 411.24C602.533 414.555 588.929 417.218 575.143 418.688C567.425 419.511 559.695 420.202 551.971 420.946C551.294 421.011 550.613 421.051 549.934 421.064C547.165 421.119 547.168 421.107 546.002 418.21C543.252 411.374 538.812 406.201 532.422 402.939C531.938 402.691 531.499 402.345 531.046 402.029C530.948 401.961 530.9 401.836 530.928 401.715L530.977 401.499Z" fill="white"/>
<path d="M22.183 458.887C22.0873 458.758 22.0846 458.58 22.1733 458.447C22.5149 457.932 22.8316 457.393 23.2379 456.943C30.9647 448.39 39.6194 440.959 48.5148 433.814C57.3436 426.723 66.518 420.156 76.0784 414.225C82.7059 410.114 89.5285 406.341 96.3391 402.567C107.873 396.176 119.862 390.844 132.099 386.142C146.324 380.676 160.84 376.284 175.705 373.143C188.662 370.405 201.717 368.47 214.863 367.118C225.629 366.011 236.401 364.936 247.142 363.596C261.126 361.852 274.664 358.078 287.952 353.217C300.182 348.743 311.989 343.23 323.739 337.556C336.735 331.281 349.687 324.899 362.783 318.864C376.896 312.359 391.349 306.747 406.134 302.153C416.415 298.958 426.714 295.784 437.115 293.067C446.797 290.538 456.589 288.423 466.398 286.498C475.851 284.643 485.359 283.028 494.895 281.742C504.348 280.467 513.85 279.437 523.36 278.829C540.293 277.745 557.249 276.674 574.22 277.093C589.251 277.464 604.301 277.738 619.279 279.368C630.951 280.639 642.639 281.778 654.281 283.301C664.643 284.656 674.961 286.397 685.282 288.077C696.06 289.832 706.832 291.631 717.58 293.574C725.342 294.977 733.064 296.623 740.796 298.204C748.26 299.731 755.72 301.279 763.169 302.882C769.363 304.214 775.537 305.651 781.724 307.022C788.628 308.551 795.54 310.042 802.443 311.576C811.048 313.489 819.642 315.455 828.25 317.348C835.429 318.928 842.617 320.463 849.81 321.969C859.334 323.964 868.855 325.982 878.4 327.859C886.238 329.4 894.112 330.743 901.967 332.186C918.497 335.223 935.129 337.487 951.774 339.693C963.518 341.249 975.295 342.258 987.108 342.842C991.95 343.082 996.807 343.005 1001.66 343.092C1001.81 343.095 1001.96 343.178 1002.18 343.299C1002.43 343.431 1002.51 343.754 1002.37 343.999C1002.02 344.597 1001.7 345.156 1001.34 345.679C998.267 350.119 994.964 354.403 992.133 359.009C985.755 369.386 982.192 380.882 980.703 393.1C979.924 399.495 981.056 405.792 981.753 412.11C982.954 422.998 985.885 433.44 989.152 443.788C991.126 450.04 992.241 456.481 993.252 462.951C993.492 464.487 993.466 464.682 992.608 466.059C992.454 466.307 992.101 466.301 991.961 466.043C991.914 465.958 991.877 465.872 991.856 465.782C989.655 456.112 985.275 447.396 980.993 438.657C977.028 430.567 973.692 422.247 971.593 413.4C968.921 402.142 968.194 390.755 969.799 379.27C970.803 372.089 972.883 365.205 975.737 358.585C977.305 354.946 976.958 354.45 973.193 354.348C962.744 354.065 952.286 353.943 941.85 353.383C932.147 352.862 922.461 351.942 912.78 351.047C903.649 350.202 894.52 349.292 885.418 348.166C875.865 346.985 866.339 345.55 856.81 344.158C848.641 342.964 840.476 341.726 832.323 340.41C826.704 339.504 821.114 338.406 815.504 337.439C805.828 335.769 796.144 334.147 786.467 332.482C778.961 331.19 771.464 329.839 763.957 328.557C754.729 326.98 745.495 325.44 736.261 323.898C724.764 321.979 713.272 320.027 701.764 318.184C696.966 317.416 692.129 316.92 687.316 316.255C680.045 315.251 672.78 314.196 665.509 313.186C662.238 312.732 658.97 312.214 655.684 311.933C638.232 310.44 620.796 308.504 603.314 307.707C586.558 306.944 569.753 307.355 552.969 307.32C547.284 307.309 541.584 307.277 535.917 307.666C525.397 308.387 514.875 309.204 504.392 310.367C493.914 311.529 483.424 312.797 473.049 314.686C460.501 316.971 447.987 319.597 435.611 322.742C423.145 325.911 410.795 329.654 398.525 333.596C385.813 337.679 373.341 342.539 361.071 347.948C347.798 353.799 334.515 359.627 321.223 365.431C318.6 366.576 315.911 367.555 313.259 368.627C312.575 368.903 311.816 369.115 311.273 369.588C310.851 369.956 310.435 370.738 310.525 371.234C310.612 371.717 311.298 372.33 311.805 372.435C313.51 372.787 315.255 372.924 316.982 373.168C326.249 374.475 335.521 375.742 344.779 377.113C356.668 378.875 368.553 380.669 380.425 382.549C390.847 384.2 401.246 386.016 411.662 387.711C421.714 389.348 431.769 390.963 441.833 392.514C448.271 393.506 454.724 394.4 461.178 395.271C464.902 395.773 468.64 396.174 472.377 396.567C484.049 397.798 495.725 398.998 507.397 400.232C507.74 400.268 508.073 400.407 508.581 400.604C508.865 400.714 508.891 401.127 508.622 401.276C507.958 401.642 507.498 401.912 507.009 402.098C498.891 405.191 492.403 410.492 487.736 418.122C486.674 419.858 485.482 420.407 483.657 420.212C473.807 419.158 463.948 418.202 454.102 417.111C445.989 416.212 437.877 415.277 429.789 414.168C419.426 412.748 409.078 411.201 398.74 409.59C386.955 407.754 375.186 405.799 363.413 403.874C354.991 402.497 346.581 401.035 338.154 399.698C327.913 398.072 317.657 396.555 307.412 394.961C295.539 393.113 283.691 391.076 271.794 389.424C263.983 388.339 256.103 387.801 248.255 386.999C237.102 385.86 225.912 385.445 214.727 385.866C204.011 386.269 193.294 386.969 182.678 388.741C174.715 390.07 166.678 391.047 158.816 392.863C148.895 395.154 139.091 398.029 129.289 400.857C118.753 403.896 108.584 408.063 98.5174 412.497C86.4959 417.791 74.8155 423.811 63.4796 430.586C49.9074 438.697 36.8238 447.566 24.5609 457.746C23.9756 458.232 23.2922 458.588 22.6375 458.981C22.4859 459.073 22.2943 459.036 22.1865 458.891L22.183 458.887Z" fill="white"/>
<path d="M21.147 588.282C22.058 587.967 22.9562 587.601 23.882 587.345C33.3024 584.741 41.5253 579.816 48.7131 572.985C54.1886 567.781 58.6654 561.665 62.6836 555.184C68.9102 545.14 73.8152 534.357 78.7348 523.569C83.6038 512.892 89.8303 503.16 97.9163 494.818C103.369 489.192 109.65 485.055 116.849 482.299C126.17 478.731 135.724 476.568 145.643 476.807C155.806 477.051 165.481 479.394 173.951 485.712C183.517 492.849 188.272 502.724 188.815 514.95C189.181 523.183 187.596 531.055 184.864 538.721C183.855 541.552 183.947 542.068 186.153 543.89C188.677 545.975 191.625 547.086 194.813 547.154C199.303 547.25 203.797 547.101 208.29 547.101C238.747 547.097 269.205 547.105 299.663 547.108C305.873 547.109 311.942 546.267 317.571 543.329C321.641 541.204 325.168 538.352 327.758 534.306C331.285 528.794 329.209 523.478 325.289 520.299C322.318 517.89 318.899 516.501 315.233 515.896C312.888 515.509 310.492 515.296 308.119 515.293C277.845 515.247 247.571 515.253 217.297 515.245C216.288 515.245 215.277 515.28 214.27 515.23C211.763 515.107 211.146 514.104 212.121 511.738C214.197 506.696 216.233 501.634 218.394 496.633C221.133 490.294 224.459 484.31 228.421 478.716C235.683 468.462 244.995 461.387 256.853 458.165C268.915 454.888 280.964 454.412 292.919 458.559C295.585 459.484 298.083 461.009 300.557 462.449C301.331 462.9 302.287 464.004 302.255 464.766C302.199 466.076 300.774 465.901 299.808 466.001C294.955 466.503 290.188 467.413 285.559 469.073C273.334 473.456 263.487 481.052 256.612 492.681C256.225 493.335 255.861 494.007 255.53 494.694C255.415 494.933 255.433 495.242 255.331 495.909C256.247 495.99 257.1 496.132 257.953 496.132C277.31 496.139 296.668 496.039 316.024 496.167C324.662 496.225 333.265 497.013 341.457 500.272C347.895 502.833 353.589 506.557 358.104 512.155C364.599 520.208 365.777 530.564 361.086 539.945C360.236 541.645 359.151 543.214 358.19 544.854C357.876 545.389 357.611 545.956 357.183 546.778C358.065 546.915 358.66 547.085 359.256 547.089C368.427 547.164 377.6 547.173 386.77 547.311C388.764 547.341 389.843 546.742 390.702 544.683C397.033 529.501 403.52 514.39 409.949 499.253C412.566 493.091 415.226 486.948 417.732 480.736C418.534 478.749 419.616 478.043 421.685 478.067C431.591 478.178 441.499 478.11 451.406 478.127C452.095 478.128 452.784 478.298 453.911 478.448C450.671 486.727 447.258 494.525 444.396 502.774C446.09 501.571 447.779 500.36 449.479 499.166C458.982 492.491 468.996 486.87 479.961 483.343C491.869 479.512 504.068 477.618 516.537 477.493C524.841 477.411 533.04 477.965 540.986 480.699C549.796 483.73 556.913 489.049 561.024 498.022C564.755 506.164 565.222 514.714 563.09 523.422C560.232 535.1 553.717 544.22 544.896 551.629C533.296 561.372 519.957 566.494 505.224 567.76C504.129 567.854 503.024 567.827 501.923 567.827C459.906 567.83 417.889 567.828 375.873 567.828C318.261 567.828 260.649 567.827 203.037 567.831C200.101 567.831 197.165 567.933 194.231 567.889C186.532 567.773 180.13 564.858 175.52 558.15C175.366 557.925 175.123 557.767 174.806 557.469C174.399 557.828 173.938 558.124 173.616 558.538C165.819 568.546 155.805 574.532 143.652 576.229C134.473 577.511 125.533 576.62 117.377 571.315C107.659 564.995 105.266 554.988 108.933 544.199C109.606 542.219 110.657 540.375 111.601 538.506C111.825 538.063 112.32 537.771 113.041 537.067C113.237 538.193 113.419 538.887 113.469 539.592C113.667 542.346 114.438 544.911 115.981 547.132C119.346 551.975 123.511 553.237 129.663 551.879C134.409 550.831 138.2 547.856 141.425 544.234C148.276 536.538 152.217 527.313 153.555 516.897C154.023 513.257 153.908 509.578 152.867 506.005C151.771 502.244 149.757 499.25 146.291 497.548C142.73 495.799 139.449 497.136 136.299 498.823C132.079 501.084 128.628 504.406 125.423 508.019C117.515 516.933 111.678 527.224 106.935 538.298C102.006 549.802 95.6865 560.398 87.2845 569.495C77.7611 579.806 66.3455 586.609 52.9118 589.481C44.0416 591.377 35.0993 591.93 26.109 590.469C24.4419 590.199 22.7005 590.088 21.2439 589.062C21.2116 588.802 21.1793 588.542 21.147 588.282ZM425.246 546.896C426.484 547.123 426.989 547.296 427.493 547.296C450.514 547.303 473.534 547.322 496.555 547.272C503.388 547.258 509.801 545.49 515.629 541.619C525.279 535.208 530.164 522.519 526.367 511.521C524.295 505.521 520.731 501.226 515.073 498.943C510.543 497.115 505.787 496.445 501.007 497.078C496.384 497.689 491.753 498.534 487.25 499.776C477.541 502.453 468.339 506.513 459.746 512.018C449.222 518.762 440.292 527.415 432.467 537.369C430.143 540.325 427.916 543.366 425.246 546.896Z" fill="white"/>
<path d="M634.189 567.66C634.595 566.369 634.769 565.627 635.054 564.935C644.634 541.662 654.137 518.354 663.852 495.144C668.476 484.095 673.889 473.475 681.23 464.071C689.846 453.033 700.533 445.296 713.617 441.241C725.143 437.67 736.835 436.766 748.726 438.405C749.723 438.542 750.711 438.771 751.691 439.015C751.914 439.071 752.083 439.368 752.618 439.882C751.767 440.331 751.142 440.807 750.445 441.008C733.759 445.819 721.147 456.438 711.383 471.168C706.374 478.724 702.551 486.927 699.099 495.362C693.482 509.086 687.754 522.759 682.076 536.456C680.867 539.371 679.656 542.286 678.48 545.215C678.278 545.716 678.246 546.292 678.086 547.081H768.557C768.022 545.91 767.705 544.957 767.192 544.138C764.484 539.806 760.898 536.392 756.916 533.395C754.231 531.374 751.589 529.292 748.914 527.257C740.001 520.476 737.345 511.261 739.461 500.236C740.906 492.705 743.644 485.684 747.175 478.974C748.064 477.285 749.068 476.518 751.027 476.525C772.677 476.601 794.328 476.535 815.979 476.573C827.724 476.594 838.133 480.632 847.001 488.717C853.172 494.342 856.969 501.584 858.328 510.014C859.734 518.735 856.919 526.373 851.824 533.162C848.395 537.73 844.295 541.571 839.77 544.915C839.066 545.436 838.386 545.994 837.515 546.675C838.083 547.039 838.298 547.299 838.513 547.298C848.693 547.279 858.873 547.165 869.052 547.236C872.923 547.263 875.797 545.467 877.965 542.407C881.084 538.005 884.043 533.473 886.962 528.918C891.42 521.961 895.586 514.788 900.236 507.977C907.228 497.736 915.654 489.086 926.889 484.025C937.37 479.304 948.288 476.51 959.748 476.779C970.115 477.021 979.948 479.42 988.473 486.044C997.876 493.351 1002.6 503.239 1002.95 515.5C1003.35 529.352 998.961 541.633 991.774 552.952C987.347 559.924 981.932 565.893 974.927 570.106C968.025 574.258 960.628 576.463 952.659 576.671C946.419 576.835 940.394 575.938 934.698 573.172C929.646 570.719 925.598 567.138 923.099 561.755C921.281 557.839 921.146 553.742 921.697 549.593C922.222 545.641 923.592 541.964 925.673 538.597C925.967 538.12 926.138 537.559 926.366 537.036C926.669 537.203 926.973 537.369 927.276 537.536C927.397 538.317 927.539 539.096 927.636 539.881C928.234 544.736 930.1 548.755 934.415 551.106C937.525 552.801 940.826 552.674 944.08 551.807C948.653 550.587 952.386 547.831 955.575 544.241C962.579 536.356 966.404 526.898 967.757 516.313C968.183 512.974 967.964 509.579 967.117 506.265C965.132 498.502 958.829 495.127 951.747 498.148C948.488 499.538 945.635 501.625 943.045 504.131C937.807 509.201 933.516 515.085 929.746 521.389C926.037 527.592 922.54 533.935 918.838 540.143C914.382 547.617 909.304 554.565 902.553 559.955C896.073 565.128 888.812 567.856 880.594 567.853C822.889 567.824 765.184 567.854 707.479 567.857C684.085 567.858 660.69 567.84 637.297 567.823C636.414 567.822 635.531 567.733 634.189 567.66ZM798.103 547.12C798.972 546.944 799.618 546.918 800.184 546.683C809.882 542.654 816.952 535.74 820.661 525.407C823.886 516.422 821.659 507.376 815.053 501.521C811.06 497.982 806.344 496.123 801.21 495.834C795.266 495.5 789.3 495.578 783.343 495.522C778.851 495.48 774.358 495.485 769.865 495.518C767.535 495.535 767.19 495.919 767.068 498.354C766.949 500.739 767.403 503.042 768.79 504.917C770.638 507.417 772.595 509.857 774.731 512.085C777.067 514.523 779.708 516.635 782.132 518.985C789.355 525.989 794.735 534.225 797.251 544.344C797.474 545.244 797.792 546.117 798.103 547.12Z" fill="white"/>
<path d="M641.295 478.234C641.134 479.158 641.132 479.738 640.933 480.228C633.62 498.22 626.403 516.255 618.918 534.167C614.664 544.347 609.335 553.907 602.402 562.398C592.832 574.12 580.903 581.733 566.613 585.296C559.971 586.952 553.232 587.733 546.429 587.488C542.32 587.34 538.226 586.711 534.13 586.251C533.556 586.186 533.009 585.852 532.383 585.617C532.743 584.047 533.919 584.131 534.802 583.859C539.299 582.472 543.685 580.816 547.842 578.5C560.185 571.623 569.395 561.408 576.623 549.001C581.151 541.23 584.219 532.754 587.661 524.455C592.681 512.352 597.675 500.238 602.666 488.121C603.723 485.556 604.773 482.984 605.722 480.374C606.332 478.697 607.309 478.052 609.05 478.064C618.863 478.132 628.676 478.086 638.489 478.09C639.354 478.09 640.219 478.177 641.295 478.234Z" fill="white"/>
<path d="M510.494 457.737C503.276 457.472 497.267 454.36 494.063 446.858C491.566 441.013 491.946 434.925 494.296 429.126C497.794 420.494 503.796 414.524 512.508 412.056C518.139 410.461 523.764 410.688 528.998 413.839C533.71 416.676 536.262 421.084 537.003 426.641C538.152 435.248 535.625 442.656 529.949 448.854C524.758 454.521 518.403 457.586 510.494 457.737Z" fill="white"/>
<path d="M432.965 715.327C433.211 715.697 433.406 716.132 433.717 716.438C439.74 722.362 445.763 728.287 451.816 734.178C454.754 737.038 456.774 740.601 458.858 744.118C459.085 744.501 459.115 745.014 459.335 745.833C458.492 746.061 457.757 746.397 457.008 746.436C455.27 746.527 453.522 746.415 451.782 746.494C448.639 746.636 446.252 745.407 444.07 742.938C440.581 738.991 436.923 735.164 433.018 731.682C424.134 723.76 414.095 718.06 402.488 716.05C398.082 715.287 393.551 715.17 389.071 715.073C384.86 714.983 380.64 715.301 376.424 715.457C375.893 715.477 375.365 715.609 374.461 715.746C374.338 725.674 374.467 735.557 374.383 745.76C370.715 746.113 367.304 745.951 363.966 745.888C363.361 743.427 363.271 651.9 363.858 648.788C364.749 648.745 365.72 648.652 366.69 648.657C382.921 648.743 399.151 648.887 415.382 648.914C420.971 648.923 426.563 648.484 432.151 648.548C438.165 648.617 443.743 650.281 448.354 654.648C451.507 657.634 453.609 661.371 454.918 665.522C458.956 678.322 458.873 690.941 452.771 703.106C448.983 710.656 443.047 714.69 434.809 714.705C434.358 714.706 433.902 714.762 433.459 714.85C433.314 714.878 433.201 715.091 432.965 715.327ZM405.009 661.394V661.404C400.884 661.404 396.758 661.404 392.633 661.404C387.316 661.403 381.999 661.387 376.682 661.405C374.5 661.413 374.382 661.568 374.305 663.867C374.295 664.156 374.302 664.446 374.302 664.735C374.298 675.435 374.293 686.136 374.293 696.837C374.293 697.511 374.285 698.191 374.359 698.858C374.592 700.954 375.455 701.952 377.439 702.326C378.244 702.478 379.081 702.484 379.903 702.488C383.662 702.504 387.421 702.495 391.179 702.495C405.206 702.495 419.232 702.442 433.258 702.522C437.868 702.548 441.344 700.576 443.318 696.331C447.838 686.612 447.609 676.778 443.143 667.094C441.647 663.849 438.994 662.016 435.524 661.685C433.884 661.528 432.233 661.412 430.587 661.407C422.061 661.38 413.535 661.394 405.009 661.394Z" fill="white"/>
<path d="M945.76 700.969C947.427 699.244 948.574 698.154 949.616 696.962C961.84 682.982 974.005 668.944 986.3 655.033C988.461 652.587 991.131 650.632 993.61 648.508C994.077 648.107 994.742 647.804 995.338 647.755C998.286 647.513 1002.25 650.759 1002.81 653.839C1002.96 654.683 1002.99 655.562 1002.99 656.425C1003 684.305 1003 712.184 1002.99 740.063C1002.99 741.874 1002.9 743.685 1002.84 745.842C999.339 745.99 996.114 746.11 992.486 745.709C992.486 732.42 992.487 719.334 992.486 706.248C992.485 693.281 992.494 680.314 992.121 667.213C988.935 669.58 986.654 672.655 984.133 675.471C981.618 678.279 979.141 681.124 976.653 683.957C974.102 686.861 971.558 689.771 969.01 692.677C966.461 695.582 963.908 698.483 961.36 701.39C958.876 704.223 956.398 707.062 953.914 709.896C951.383 712.784 948.849 715.67 946.043 718.867C931.092 701.573 916.396 684.573 901.616 667.475C900.529 668.647 900.886 669.754 900.885 670.725C900.855 694.36 900.855 717.995 900.85 741.629C900.849 742.866 900.85 744.102 900.85 745.735C897.174 746.117 893.767 745.97 890.079 745.85C889.898 743.494 889.598 741.403 889.597 739.312C889.579 712.301 889.59 685.29 889.648 658.279C889.652 656.476 889.931 654.626 890.374 652.88C891.409 648.8 896.679 646.179 900.316 648.954C903.422 651.322 905.892 654.21 908.41 657.117C920.512 671.085 932.588 685.08 944.659 699.078C945.025 699.502 945.243 700.068 945.76 700.969Z" fill="white"/>
<path d="M77.4805 718.754C69.6868 710.171 62.4968 701.468 55.0735 692.993C47.6629 684.533 40.4734 675.855 32.6036 667.646C32.1758 676.42 32.2454 685.049 32.2319 693.675C32.2186 702.26 32.229 710.845 32.229 719.43C32.229 728.087 32.229 736.745 32.229 745.799C28.5765 746.053 25.249 746.014 21.5711 745.808C21.4271 744.387 21.1825 743.089 21.1812 741.792C21.1604 720.377 21.1854 698.963 21.1636 677.549C21.1573 671.282 20.9878 665.014 21.0007 658.747C21.0044 656.934 21.2159 655.079 21.6281 653.321C22.2667 650.595 24.0365 648.854 26.5855 647.991C27.9657 647.523 29.3494 647.465 30.5499 648.359C32.482 649.798 34.5896 651.113 36.1671 652.92C46.7667 665.065 57.2422 677.33 67.767 689.547C70.5976 692.833 73.4559 696.092 76.3131 699.352C76.6123 699.693 76.9905 699.958 77.5379 700.439C78.1901 699.838 78.8354 699.344 79.3659 698.738C87.8771 689.029 96.3714 679.304 104.875 669.586C109.529 664.267 114.115 658.877 118.893 653.683C120.719 651.699 122.976 650.144 125.086 648.463C125.568 648.079 126.245 647.826 126.852 647.778C129.784 647.543 133.769 650.917 134.181 653.989C134.346 655.224 134.359 656.489 134.359 657.74C134.37 685.714 134.374 713.687 134.359 741.661C134.358 742.978 134.171 744.295 134.059 745.763H124.044C123.977 744.368 123.866 743.151 123.866 741.934C123.864 719.073 123.881 696.212 123.871 673.351C123.87 671.377 124.082 669.363 123.332 666.874C117.756 672.538 112.993 678.46 107.944 684.083C102.846 689.76 97.9036 695.591 92.8674 701.329C87.8473 707.049 82.7951 712.738 77.4805 718.754Z" fill="white"/>
<path d="M469.579 697.739C469.579 682.892 469.579 668.045 469.579 653.198C469.579 652.62 469.563 652.041 469.582 651.463C469.664 648.863 469.827 648.677 472.266 648.667C476.3 648.65 480.334 648.663 484.367 648.663C499.128 648.663 513.889 648.594 528.649 648.691C536.585 648.744 543.85 651.032 549.878 656.759C552.627 659.371 554.808 662.463 556.569 665.87C562.726 677.782 565.561 690.486 564.266 704.026C563.251 714.63 560.214 724.596 554.446 733.455C548.621 742.401 540.31 746.71 530.119 746.778C511.509 746.902 492.897 746.818 474.286 746.817C473.553 746.817 472.818 746.806 472.087 746.759C469.774 746.611 469.606 746.472 469.589 744.015C469.554 738.905 469.574 733.796 469.574 728.686C469.573 718.37 469.574 708.055 469.574 697.739H469.579ZM480.585 734.318C481.975 734.408 483.045 734.536 484.115 734.538C495.023 734.552 505.93 734.539 516.837 734.548C521.053 734.551 525.273 734.722 529.484 734.588C536.667 734.361 542.402 731.062 546.293 724.728C550.444 717.971 552.543 710.361 553.247 702.418C554.1 692.803 552.197 683.608 548.304 674.908C544.562 666.546 538.405 661.703 529.415 661.428C526.212 661.33 523.001 661.5 519.794 661.497C512.097 661.49 504.401 661.431 496.704 661.438C492.032 661.443 487.359 661.489 482.689 661.605C480.871 661.65 480.712 661.927 480.597 663.853C480.568 664.334 480.587 664.817 480.587 665.299C480.586 687.275 480.586 709.25 480.585 731.226C480.585 732.167 480.585 733.108 480.585 734.318Z" fill="white"/>
<path d="M728.839 746.82C717.832 746.82 706.825 746.786 695.819 746.84C692.156 746.857 688.706 746.021 685.47 744.316C679.003 740.907 675.833 735.072 674.899 727.76C674.608 725.477 674.599 723.144 674.595 720.834C674.571 704.629 674.543 688.425 674.619 672.221C674.631 669.451 674.817 666.599 675.464 663.929C677.855 654.06 685.154 648.061 694.9 648.003C717.828 647.866 740.758 647.853 763.687 647.807C766.784 647.801 767.116 648.203 767.123 651.502C767.126 653.142 767.133 654.782 767.109 656.421C767.067 659.197 766.866 659.426 764.319 659.445C762.577 659.458 760.835 659.377 759.092 659.377C738.821 659.379 718.551 659.388 698.28 659.394C698.188 659.395 698.096 659.394 698.005 659.394C690.37 659.442 686.906 662.93 686.556 670.936C686.523 671.706 686.538 672.479 686.538 673.25C686.534 689.647 686.522 706.044 686.544 722.442C686.546 723.879 686.688 725.331 686.906 726.752C687.711 732.003 690.431 734.72 695.486 735.278C697.123 735.459 698.783 735.456 700.433 735.457C721.254 735.473 742.075 735.475 762.897 735.481C765.715 735.481 767.124 736.96 767.122 739.917C767.121 741.267 767.149 742.618 767.114 743.968C767.05 746.402 766.721 746.726 764.336 746.815C763.878 746.832 763.419 746.813 762.961 746.813C751.587 746.813 740.213 746.813 728.839 746.813V746.82Z" fill="white"/>
<path d="M349.555 745.76H339.007C338.95 744.348 338.859 743.122 338.859 741.897C338.849 719.333 338.87 696.77 338.814 674.206C338.808 672.021 338.567 669.769 338.022 667.666C337.107 664.141 334.56 662.307 331.229 661.781C329.333 661.481 327.391 661.401 325.47 661.397C310.157 661.371 294.844 661.377 279.531 661.405C277.793 661.408 276.044 661.514 274.321 661.743C270.791 662.211 267.932 664.784 267.213 668.427C266.733 670.86 266.51 673.391 266.504 675.879C266.453 697.864 266.477 719.849 266.479 741.834C266.479 743.058 266.479 744.282 266.479 745.732H255.976C255.877 744.179 255.704 742.688 255.7 741.195C255.672 730.299 255.675 719.403 255.673 708.507C255.671 696.261 255.69 684.015 255.664 671.769C255.656 668.444 256.185 665.233 257.315 662.149C259.736 655.537 264.349 651.425 270.809 649.723C273.277 649.073 275.88 648.721 278.424 648.707C295.021 648.618 311.619 648.589 328.215 648.688C335.782 648.733 342.197 651.518 346.551 658.411C348.582 661.627 349.608 665.198 349.62 669.045C349.699 693.343 349.751 717.641 349.795 741.94C349.798 743.161 349.645 744.382 349.555 745.76Z" fill="white"/>
<path d="M158.776 745.762H148.005C147.931 744.711 147.809 743.783 147.808 742.854C147.798 719.133 147.769 695.411 147.818 671.69C147.838 661.739 153.6 652.824 161.98 650.038C164.818 649.094 167.909 648.598 170.887 648.585C181.151 648.54 191.416 648.86 201.682 648.917C207.821 648.951 213.962 648.644 220.101 648.695C225.437 648.74 230.455 650.107 234.733 653.694C239.817 657.959 242.008 663.693 242.271 670.365C242.351 672.386 242.297 674.414 242.297 676.439C242.304 697.942 242.31 719.446 242.316 740.949C242.317 742.466 242.316 743.984 242.316 745.836C238.588 746.013 235.265 746.043 231.645 745.808C231.542 743.548 231.373 741.55 231.372 739.553C231.355 718.435 231.394 697.318 231.333 676.2C231.325 673.529 231.112 670.786 230.501 668.205C229.477 663.875 226.469 661.64 222.252 661.618C206.39 661.533 190.528 661.459 174.666 661.409C172.191 661.401 169.716 661.525 167.242 661.613C163.629 661.741 161.214 663.728 159.92 667.162C159.389 668.57 159.123 670.129 158.972 671.646C158.78 673.558 158.783 675.496 158.782 677.423C158.771 698.926 158.775 720.43 158.776 741.933C158.776 743.073 158.776 744.212 158.776 745.762Z" fill="white"/>
<path d="M865.645 648.645C868.903 648.645 871.734 648.653 874.566 648.641C875.667 648.637 876.301 649.136 876.344 650.334C876.382 651.394 876.438 652.454 876.438 653.514C876.441 676.668 876.423 699.822 876.446 722.975C876.45 727.614 875.572 732.001 873.268 735.971C869.323 742.771 863.19 745.614 855.926 745.905C849.971 746.142 844.001 745.959 838.037 745.959C826.294 745.959 814.55 746.09 802.809 745.914C794.184 745.784 787.632 741.732 784.05 733.279C783.104 731.049 782.768 728.459 782.526 725.994C782.235 723.029 782.287 720.021 782.285 717.031C782.269 695.712 782.274 674.394 782.28 653.075C782.281 648.672 782.294 648.671 786.556 648.661C787.932 648.658 789.309 648.643 790.684 648.671C793.163 648.723 793.244 648.816 793.289 651.531C793.306 652.592 793.287 653.653 793.287 654.715C793.286 677 793.276 699.285 793.306 721.571C793.308 723.096 793.518 724.641 793.804 726.141C794.538 729.99 796.925 732.18 800.5 732.865C802.383 733.226 804.327 733.37 806.244 733.374C822.115 733.414 837.987 733.404 853.858 733.386C854.953 733.385 856.046 733.174 857.142 733.102C862.47 732.749 865.503 728.022 865.49 722.777C865.462 711.779 865.494 700.781 865.495 689.783C865.495 677.338 865.484 664.893 865.49 652.448C865.491 651.317 865.579 650.186 865.645 648.645Z" fill="white"/>
<path d="M658.985 745.729H648.813V700.204C647.778 700.046 647.002 699.825 646.227 699.824C627.057 699.805 607.888 699.807 588.719 699.819C588.186 699.819 587.653 699.97 586.843 700.093C586.763 701.154 586.62 702.175 586.62 703.197C586.614 714.964 586.622 726.731 586.647 738.497C586.651 740.652 586.434 742.729 585.303 744.599C584.018 746.725 581.625 747.487 578.698 746.693C576.534 746.106 575.76 745.045 575.571 742.248C575.487 740.999 575.502 739.742 575.502 738.488C575.496 709.939 575.494 681.39 575.492 652.841C575.492 649.894 575.609 649.753 578.419 649.725C580.436 649.704 582.454 649.744 584.472 649.733C585.835 649.725 586.507 650.399 586.482 651.843C586.469 652.614 586.49 653.386 586.49 654.157C586.492 663.706 586.499 673.254 586.49 682.803C586.486 687.247 586.179 687.135 590.472 687.137C607.807 687.145 625.142 687.133 642.477 687.128C644.196 687.127 645.916 687.128 647.887 687.128C647.994 685.584 648.148 684.371 648.15 683.158C648.169 673.224 648.16 663.29 648.158 653.355C648.158 652.777 648.147 652.198 648.151 651.619C648.158 650.491 648.608 649.757 649.768 649.752C652.773 649.74 655.777 649.748 658.669 649.748C659.385 652.048 659.624 741.062 658.985 745.729Z" fill="white"/>
<path d="M271.665 714.546C271.665 710.964 271.654 707.713 271.672 704.461C271.678 703.536 272.192 703.061 273.064 703.038C273.705 703.021 274.346 703.029 274.987 703.029C293.49 703.029 311.993 703.029 330.495 703.031C331.136 703.031 331.777 703.045 332.418 703.054C333.509 703.07 334.144 703.663 334.244 704.787C334.415 706.702 334.671 708.626 334.635 710.541C334.586 713.229 333.517 714.294 330.913 714.585C330.005 714.687 329.084 714.7 328.169 714.701C310.308 714.706 292.446 714.706 274.585 714.698C273.775 714.698 272.965 714.616 271.665 714.546Z" fill="white"/>
<path d="M226.481 703.013C226.481 706.586 226.489 709.752 226.477 712.919C226.473 713.978 225.898 714.484 224.924 714.524C224.375 714.546 223.825 714.547 223.275 714.547C204.481 714.552 185.687 714.557 166.893 714.561C165.994 714.561 165.094 714.561 164.082 714.561C163.91 713.663 163.695 713.029 163.684 712.392C163.639 709.886 163.68 707.379 163.647 704.873C163.628 703.442 164.159 702.685 165.601 702.797C166.147 702.839 166.7 702.796 167.25 702.796C185.861 702.789 204.471 702.779 223.082 702.785C224.064 702.785 225.046 702.913 226.481 703.013Z" fill="white"/>
</svg>